<svg width="128" height="128" viewBox="0 0 128 128" fill="none" xmlns="http://www.w3.org/2000/svg">
<rect width="128" height="128" rx="14" fill="#7F00FF"/>
<rect width="128" height="128" rx="14" fill="#7F00FF"/>
<path d="M70.2134 62.914C75.0787 65.1553 79.2061 67.8613 82.5954 71.032C86.0394 74.2027 87.7614 77.6467 87.7614 81.364C87.7614 84.644 86.8594 87.0767 85.0554 88.662C83.2514 90.2473 81.0374 91.04 78.4134 91.04C74.6414 91.04 71.0881 89.318 67.7534 85.874C64.4734 82.3753 61.3027 77.8107 58.2414 72.18C58.2414 76.0613 58.0227 79.314 57.5854 81.938C57.2027 84.562 56.3281 86.7487 54.9614 88.498C53.5947 90.1927 51.5447 91.04 48.8114 91.04C45.9687 91.04 43.8641 89.974 42.4974 87.842C41.1854 85.71 40.3654 83.1407 40.0374 80.134C39.7641 77.1273 39.6274 73.1913 39.6274 68.326C39.6274 64.882 39.6547 60.8093 39.7094 56.108C39.8187 51.352 39.9281 48.4 40.0374 47.252C40.1467 43.152 40.9941 39.872 42.5794 37.412C44.1647 34.8973 46.4061 33.64 49.3034 33.64C52.6381 33.64 54.9614 35.0613 56.2734 37.904C57.6401 40.7467 58.3234 45.0927 58.3234 50.942V53.402C61.1114 48.3727 64.3367 43.8627 67.9994 39.872C71.6621 35.8813 75.3247 33.886 78.9874 33.886C81.5567 33.886 83.6614 34.87 85.3014 36.838C86.9961 38.7513 87.8434 41.1293 87.8434 43.972C87.8434 47.7987 86.2034 51.4613 82.9234 54.96C79.6981 58.404 75.4614 61.0553 70.2134 62.914Z" fill="white"/>
</svg>
